<?xml version="1.0" standalone="no"?>
<!DOCTYPE svg PUBLIC "-//W3C//DTD SVG 20010904//EN"
 "http://www.w3.org/TR/2001/REC-SVG-20010904/DTD/svg10.dtd">
<svg version="1.0" xmlns="http://www.w3.org/2000/svg"
 width="512.000000pt" height="512.000000pt" viewBox="0 0 512.000000 512.000000"
 preserveAspectRatio="xMidYMid meet">

<g transform="translate(0.000000,512.000000) scale(0.100000,-0.100000)"
fill="#FFFFFF" stroke="none">
<path d="M545 4378 c-3 -7 -4 -674 -3 -1483 l3 -1470 160 -6 c486 -20 915
-123 1286 -310 102 -51 244 -136 308 -183 l35 -26 -977 0 -977 0 0 1575 0
1576 -26 24 c-34 32 -75 32 -111 1 l-28 -24 -3 -1661 -2 -1661 2350 0 2350 0
-2 1661 -3 1661 -28 24 c-36 31 -77 31 -111 -1 l-26 -24 0 -1576 0 -1575 -977
0 -977 0 35 26 c64 47 206 132 308 183 371 187 800 290 1286 310 l160 6 0
1480 0 1480 -120 3 c-145 4 -307 -11 -479 -44 -510 -99 -954 -326 -1325 -680
l-91 -86 -91 86 c-420 400 -941 643 -1528 711 -160 19 -390 20 -396 3z m402
-173 c555 -73 1027 -297 1411 -669 l122 -119 0 -1203 c0 -662 -3 -1204 -6
-1204 -3 0 -23 13 -43 29 -135 106 -395 249 -599 327 -310 120 -595 180 -1054
220 l-68 6 0 1314 0 1314 59 0 c33 0 113 -7 178 -15z m3463 -1299 l0 -1314
-67 -6 c-357 -31 -575 -68 -808 -136 -305 -89 -603 -232 -823 -395 -34 -25
-64 -45 -67 -45 -3 0 -5 541 -5 1203 l0 1202 122 120 c233 228 498 398 807
520 238 93 552 160 769 164 l72 1 0 -1314z"/>
<path d="M950 3768 c-32 -17 -52 -60 -44 -93 11 -43 46 -61 130 -69 258 -23
623 -178 985 -418 141 -93 186 -118 213 -118 61 0 97 75 61 127 -19 28 -267
193 -422 281 -153 87 -335 169 -489 220 -186 63 -386 95 -434 70z"/>
<path d="M934 3286 c-21 -18 -28 -32 -28 -61 0 -53 38 -85 100 -85 68 0 229
-35 345 -76 231 -80 438 -188 697 -361 168 -113 195 -121 237 -78 29 28 32 70
10 102 -9 12 -64 55 -123 96 -361 249 -734 419 -1036 472 -127 22 -169 20
-202 -9z"/>
<path d="M926 2809 c-30 -35 -32 -49 -11 -88 16 -32 59 -51 117 -51 58 0 220
-38 333 -77 209 -73 492 -223 730 -387 60 -42 118 -76 128 -76 26 0 74 27 81
45 12 32 6 71 -14 93 -34 36 -327 227 -465 301 -293 160 -628 271 -814 271
-54 0 -62 -3 -85 -31z"/>
<path d="M939 2360 c-28 -17 -43 -66 -30 -99 16 -38 39 -47 146 -61 293 -36
692 -215 1049 -469 107 -76 131 -82 174 -46 33 28 42 68 23 104 -12 21 -237
175 -374 255 -243 143 -532 262 -737 306 -100 21 -224 26 -251 10z"/>
<path d="M3997 3765 c-223 -36 -493 -140 -762 -294 -146 -83 -391 -247 -410
-274 -36 -52 0 -127 61 -127 27 0 72 25 213 118 363 240 727 395 987 418 68 6
82 11 108 36 24 24 27 34 22 61 -14 71 -67 86 -219 62z"/>
<path d="M3977 3294 c-299 -54 -674 -225 -1029 -471 -59 -41 -114 -84 -123
-96 -22 -32 -19 -74 10 -102 42 -43 69 -35 237 78 259 173 466 281 697 361
116 41 277 76 345 76 62 0 100 32 100 85 0 29 -7 43 -28 61 -32 28 -86 30
-209 8z"/>
<path d="M3942 2819 c-199 -42 -426 -129 -647 -250 -138 -74 -431 -265 -465
-301 -20 -22 -26 -61 -14 -93 7 -18 55 -45 81 -45 10 0 68 34 128 76 238 164
521 314 730 387 113 39 275 77 333 77 58 0 101 19 117 51 21 39 19 53 -11 88
-24 29 -30 31 -92 30 -37 0 -109 -9 -160 -20z"/>
<path d="M3950 2354 c-310 -66 -631 -215 -988 -457 -73 -50 -137 -98 -143
-108 -19 -36 -10 -76 23 -104 43 -36 67 -30 174 46 354 252 753 431 1044 469
125 16 128 18 146 51 18 36 13 70 -16 99 -17 17 -33 20 -97 19 -43 0 -107 -7
-143 -15z"/>
</g>
</svg>
