<?xml version="1.0" standalone="no"?>
<!DOCTYPE svg PUBLIC "-//W3C//DTD SVG 20010904//EN"
 "http://www.w3.org/TR/2001/REC-SVG-20010904/DTD/svg10.dtd">
<svg version="1.0" xmlns="http://www.w3.org/2000/svg"
 width="512.000000pt" height="512.000000pt" viewBox="0 0 512.000000 512.000000"
 preserveAspectRatio="xMidYMid meet">

<g transform="translate(0.000000,512.000000) scale(0.100000,-0.100000)"
fill="#FFFFFF" stroke="none">
<path d="M1157 4966 c-82 -30 -143 -91 -173 -173 -7 -21 -13 -79 -14 -130 l0
-92 -307 -3 c-300 -3 -309 -4 -361 -27 -30 -14 -69 -43 -92 -68 -76 -87 -70
92 -68 -2138 l3 -2000 22 -41 c28 -53 74 -99 127 -127 l41 -22 2225 0 2225 0
41 22 c53 28 99 74 127 127 l22 41 3 2000 c2 2230 8 2051 -68 2138 -23 25 -62
54 -92 68 -52 23 -61 24 -359 27 l-307 3 -4 107 c-4 118 -20 163 -79 221 -75
76 -203 102 -294 62 -76 -34 -111 -66 -144 -132 -28 -57 -31 -71 -31 -161 l0
-98 -1040 0 -1040 0 0 98 c-1 148 -43 227 -151 281 -70 35 -145 41 -212 17z
m154 -141 c16 -9 39 -30 49 -48 18 -29 20 -52 20 -261 0 -212 -1 -231 -20
-261 -22 -36 -73 -65 -115 -65 -42 0 -93 29 -115 65 -19 30 -20 49 -20 259 0
185 3 232 15 257 32 62 121 87 186 54z m2630 0 c16 -9 39 -30 49 -48 18 -29
20 -52 20 -261 0 -212 -1 -231 -20 -261 -37 -60 -111 -80 -177 -48 -69 32 -73
50 -73 306 0 186 3 233 15 258 32 62 121 87 186 54z m-2971 -468 c0 -92 21
-154 71 -211 101 -114 269 -125 383 -25 69 61 89 106 94 217 l4 92 1038 0
1038 0 4 -92 c5 -111 25 -156 94 -217 114 -100 282 -89 383 25 50 57 71 119
71 211 l0 73 285 0 c309 0 327 -3 375 -55 l25 -27 3 -374 3 -374 -2281 0
-2280 0 0 369 0 369 27 33 c48 56 60 58 376 59 l287 0 0 -73z m3870 -2437 c0
-1702 5 -1579 -63 -1620 -31 -20 -68 -20 -2215 -20 -2412 0 -2221 -5 -2262 63
-20 31 -20 62 -20 1575 l0 1542 2280 0 2280 0 0 -1540z"/>
<path d="M1830 3032 c-19 -9 -45 -32 -57 -51 -22 -33 -23 -42 -23 -243 0 -235
6 -261 65 -298 30 -18 49 -20 251 -20 324 0 317 -8 312 325 -3 223 -3 224 -28
250 -49 52 -63 55 -282 55 -173 0 -208 -3 -238 -18z m410 -297 l0 -175 -175 0
-175 0 0 175 0 175 175 0 175 0 0 -175z"/>
<path d="M2815 3031 c-70 -43 -70 -40 -73 -287 -3 -248 0 -267 61 -304 29 -18
51 -20 251 -20 321 0 316 -5 316 318 0 201 -1 210 -23 243 -42 63 -67 69 -297
69 -182 0 -208 -2 -235 -19z m415 -296 l0 -175 -175 0 -175 0 0 175 0 175 175
0 175 0 0 -175z"/>
<path d="M3803 3034 c-18 -9 -42 -31 -53 -49 -18 -30 -20 -50 -20 -249 0 -241
4 -261 63 -296 29 -18 51 -20 250 -20 246 0 258 3 297 71 20 37 21 49 18 253
-3 240 -7 252 -79 288 -48 25 -426 26 -476 2z m417 -299 l0 -175 -180 0 -180
0 0 175 0 175 180 0 180 0 0 -175z"/>
<path d="M825 2160 c-60 -39 -65 -63 -65 -290 0 -226 6 -252 63 -294 26 -19
45 -21 230 -24 229 -4 261 2 306 53 l31 36 0 222 c0 325 8 317 -317 317 -200
0 -220 -2 -248 -20z m433 -292 l2 -178 -180 0 -180 0 0 180 0 180 178 -2 177
-3 3 -177z"/>
<path d="M1812 2160 c-56 -34 -62 -64 -62 -298 0 -201 1 -210 23 -243 42 -63
68 -69 292 -69 224 0 250 6 292 69 22 33 23 42 23 250 0 318 7 311 -317 311
-201 0 -221 -2 -251 -20z m428 -290 l0 -180 -175 0 -175 0 0 180 0 180 175 0
175 0 0 -180z"/>
<path d="M2803 2160 c-61 -37 -64 -56 -61 -305 l3 -224 30 -31 c44 -46 78 -52
302 -48 185 3 204 5 230 24 57 42 63 69 63 292 0 317 5 312 -315 312 -201 0
-223 -2 -252 -20z m427 -290 l0 -180 -175 0 -175 0 0 180 0 180 175 0 175 0 0
-180z"/>
<path d="M3793 2160 c-59 -35 -63 -55 -63 -299 l0 -220 31 -36 c45 -51 77 -57
306 -53 185 3 204 5 230 24 57 42 63 69 63 292 0 317 5 312 -315 312 -201 0
-223 -2 -252 -20z m427 -290 l0 -180 -180 0 -180 0 0 173 c0 96 3 177 7 180 3
4 84 7 180 7 l173 0 0 -180z"/>
<path d="M841 1302 c-72 -36 -76 -48 -79 -288 -3 -206 -2 -216 19 -254 37 -65
57 -70 301 -70 315 0 308 -7 308 316 0 318 4 314 -312 314 -173 0 -208 -3
-237 -18z m419 -297 l0 -175 -180 0 -180 0 0 175 0 175 180 0 180 0 0 -175z"/>
<path d="M1822 1300 c-67 -41 -72 -61 -72 -293 0 -234 6 -260 65 -297 30 -18
49 -20 251 -20 324 0 317 -8 312 325 -3 223 -3 224 -28 250 -49 52 -63 55
-287 55 -190 0 -211 -2 -241 -20z m418 -295 l0 -175 -175 0 -175 0 0 175 0
175 175 0 175 0 0 -175z"/>
<path d="M2815 1301 c-70 -43 -70 -40 -73 -287 -3 -248 0 -267 61 -304 29 -18
51 -20 251 -20 321 0 316 -5 316 317 0 232 -5 252 -72 293 -30 18 -51 20 -243
20 -187 0 -213 -2 -240 -19z m415 -296 l0 -175 -175 0 -175 0 0 175 0 175 175
0 175 0 0 -175z"/>
</g>
</svg>
