<?xml version="1.0" standalone="no"?>
<!DOCTYPE svg PUBLIC "-//W3C//DTD SVG 20010904//EN"
 "http://www.w3.org/TR/2001/REC-SVG-20010904/DTD/svg10.dtd">
<svg version="1.0" xmlns="http://www.w3.org/2000/svg"
 width="512.000000pt" height="512.000000pt" viewBox="0 0 512.000000 512.000000"
 preserveAspectRatio="xMidYMid meet">

<g transform="translate(0.000000,512.000000) scale(0.100000,-0.100000)"
fill="#FFFFFF" stroke="none">
<path d="M2014 4761 c-63 -39 -67 -143 -7 -190 25 -21 36 -21 553 -21 517 0
528 0 553 21 60 47 56 151 -7 190 -29 18 -56 19 -546 19 -490 0 -517 -1 -546
-19z"/>
<path d="M2270 4414 c-774 -122 -1397 -644 -1641 -1376 -292 -873 35 -1830
803 -2346 380 -256 871 -378 1332 -333 891 87 1619 742 1801 1619 118 566 -14
1166 -358 1627 -98 131 -98 133 -8 242 65 80 78 115 61 168 -15 47 -57 75
-112 75 -51 0 -71 -15 -148 -110 -77 -94 -105 -159 -105 -245 0 -90 19 -135
104 -249 208 -277 322 -564 362 -906 14 -128 7 -367 -17 -500 -47 -269 -165
-543 -333 -770 -79 -107 -290 -313 -401 -393 -192 -136 -458 -250 -702 -299
-98 -20 -143 -23 -343 -23 -203 0 -243 3 -345 24 -533 110 -979 436 -1239 906
-228 411 -282 925 -145 1385 165 553 603 1007 1150 1189 302 102 634 124 945
65 266 -50 464 -163 528 -300 20 -42 23 -60 18 -125 -6 -90 8 -130 55 -159 44
-28 100 -21 138 15 70 67 66 262 -8 399 -36 66 -132 168 -205 218 -132 89
-302 153 -519 195 -120 23 -540 27 -668 7z"/>
<path d="M2513 3146 c-68 -31 -68 -31 -71 -428 -2 -222 1 -372 7 -395 9 -31
78 -105 384 -410 l373 -373 48 0 c41 0 53 5 82 34 29 29 34 41 34 82 l0 48
-345 346 -345 345 0 343 0 342 -32 35 c-38 42 -87 53 -135 31z"/>
</g>
</svg>
